Coordinates
version=1
nRows=8
nColumns=40
inDegrees=yes

Units are S.I. units (second, meters, Newtons, ...)
Angles are in degrees.

endheader
time	pelvis_tilt	pelvis_list	pelvis_rotation	pelvis_tx	pelvis_ty	pelvis_tz	hip_flexion_r	hip_adduction_r	hip_rotation_r	knee_angle_r	knee_angle_r_beta	ankle_angle_r	subtalar_angle_r	mtp_angle_r	hip_flexion_l	hip_adduction_l	hip_rotation_l	knee_angle_l	knee_angle_l_beta	ankle_angle_l	subtalar_angle_l	mtp_angle_l	lumbar_extension	lumbar_bending	lumbar_rotation	arm_flex_r	arm_add_r	arm_rot_r	elbow_flex_r	pro_sup_r	wrist_flex_r	wrist_dev_r	arm_flex_l	arm_add_l	arm_rot_l	elbow_flex_l	pro_sup_l	wrist_flex_l	wrist_dev_l
      0.00000000	     -2.79839514	     -5.37133703	     12.20500451	     -1.06325368	      0.95069869	     -1.36234377	     19.91130112	      4.51606015	    -17.19944806	    -22.12200050	     -0.38610175	      1.39594691	     -8.84905938	      2.72257005	      8.61859711	     14.58340127	      7.58620668	    -56.47518900	     -0.98567799	    -11.53039926	     15.76772466	      8.50499589	     -2.16098328	      4.17159084	     -5.82002635	     -3.34228542	    -11.16727693	    -31.22632463	     13.58070563	     89.95437384	      0.00000000	      0.00000000	      2.59991414	     11.66184780	      6.00110990	     34.05788623	     89.95437384	      0.00000000	      0.00000000
      0.01000000	     -2.56033090	     -5.08278292	     12.44626839	     -1.05487127	      0.95258271	     -1.36248070	     18.71208648	      4.45150290	    -17.23249846	    -21.57492761	     -0.37655352	      1.90470583	     -8.71497117	      2.61841852	      9.98910631	     13.99782571	      7.01248050	    -58.08837384	     -1.01383338	     -8.80686632	     16.52778472	      7.91684287	     -2.55191984	      3.88498057	     -5.71846829	     -2.89112224	    -11.17372609	    -31.04438163	     13.88788067	     89.95437384	      0.00000000	      0.00000000	      2.46684193	     11.45115208	      5.49051907	     33.82043925	     89.95437384	      0.00000000	      0.00000000
      0.02000000	     -2.46423635	     -4.86017009	     12.72336600	     -1.04667700	      0.95419458	     -1.36255720	     17.69451814	      4.36337145	    -17.52475548	    -21.02922152	     -0.36702915	      2.24101780	     -8.49453578	      2.52112396	     11.57055113	     13.44974071	      6.46067031	    -59.57045487	     -1.03970057	     -6.18802758	     16.98316598	      7.46073115	     -2.77557330	      3.61520183	     -5.63324333	     -2.51109308	    -11.15768776	    -30.78045082	     14.36885636	     89.95437384	      0.00000000	      0.00000000	      2.30512716	     11.30205027	      4.85400533	     33.58734113	     89.95437384	      0.00000000	      0.00000000
      0.03000000	     -2.54033505	     -4.77532860	     13.04716736	     -1.03868385	      0.95536616	     -1.36262836	     16.92632391	      4.34845729	    -18.07990050	    -20.51771458	     -0.35810167	      2.43694092	     -8.19986702	      1.74830370	     13.51863296	     13.01679191	      5.87312657	    -60.99405053	     -1.06454701	     -2.96965381	     17.12816115	     13.70083739	     -2.74660785	      3.44803783	     -5.69958825	     -2.20223346	    -11.15666291	    -30.08712819	     15.04197961	     89.95437384	      0.00000000	      0.00000000	      2.03316188	     11.20678055	      4.22131360	     33.38773442	     89.95437384	      0.00000000	      0.00000000
      0.04000000	     -2.49145222	     -4.50183942	     13.06430859	     -1.03050438	      0.95685083	     -1.36229695	     15.93941356	      4.30394805	    -18.11837642	    -19.93341662	     -0.34790375	      2.80684030	     -7.95646253	      1.67287426	     14.96097308	     12.47832395	      5.77921293	    -61.72393460	     -1.07728589	     -1.90834746	     17.64750001	     13.39981480	     -2.93451702	      3.09008642	     -5.43106913	     -1.72106366	    -11.17419758	    -29.72814328	     15.46170181	     89.95437384	      0.00000000	      0.00000000	      1.81670956	     11.08246740	      3.83111705	     33.09427053	     89.95437384	      0.00000000	      0.00000000
      0.05000000	     -2.46966444	     -4.17191761	     12.99845769	     -1.02230305	      0.95830802	     -1.36202692	     15.00394553	      4.16424274	    -18.23499826	    -19.40529784	     -0.33868634	      3.10380314	     -7.64208526	      1.58964382	     16.31713872	     11.93328523	      5.92285930	    -62.17012787	     -1.08507343	     -1.11081931	     17.91724650	     13.21515004	     -3.09592209	      2.66113707	     -5.13650658	     -1.26454739	    -11.18386780	    -29.21692999	     15.99817793	     89.95437384	      0.00000000	      0.00000000	      1.52287946	     10.99221768	      3.52582941	     32.82971260	     89.95437384	      0.00000000	      0.00000000
      0.06000000	     -2.33212340	     -3.75412710	     12.78874032	     -1.01397822	      0.95981392	     -1.36183625	     13.95836661	      3.88142129	    -18.62166907	    -19.00707225	     -0.33173599	      3.58629757	     -6.67692447	      1.24822059	     17.37424665	     11.34926773	      6.24661925	    -62.27203865	     -1.08685211	     -0.19827738	     17.96616236	     13.67905669	     -3.38146071	      2.18703215	     -4.73902148	     -1.03736317	    -11.39203708	    -27.10948340	     16.91108981	     89.95437384	      0.00000000	      0.00000000	      1.17349643	     10.93061367	      3.14143647	     32.61253970	     89.95437384	      0.00000000	      0.00000000
      0.07000000	     -2.42197335	     -3.33201318	     12.51459261	     -1.00579263	      0.96093358	     -1.36135020	     13.21425923	      3.65215119	    -18.39397802	    -18.62806043	     -0.32512099	      3.78279772	     -6.39547296	      1.11022560	     18.64777375	     10.69273597	      6.56057760	    -62.17675878	     -1.08518916	      0.46425444	     17.98042122	     13.50602447	     -3.42233801	      1.61410770	     -4.32562594	     -0.51672712	    -11.40243004	    -26.68347203	     17.44752768	     89.95437384	      0.00000000	      0.00000000	      0.79058351	     10.86820513	      3.10018409	     32.28457798	     89.95437384	      0.00000000	      0.00000000
